<svg xmlns="http://www.w3.org/2000/svg" xmlns:xlink="http://www.w3.org/1999/xlink" viewBox="0 0 84 87.34"><defs><style>.cls-1{fill:url(#Degradado_sin_nombre_6);}</style><linearGradient id="Degradado_sin_nombre_6" y1="43.67" x2="84" y2="43.67" gradientUnits="userSpaceOnUse"><stop offset="0" stop-color="#75248b"/><stop offset="0.12" stop-color="#6f3998"/><stop offset="0.54" stop-color="#5c7cc1"/><stop offset="0.84" stop-color="#51a7db"/><stop offset="1" stop-color="#4cb7e5"/></linearGradient></defs><title>Isotipo</title><g id="Capa_2" data-name="Capa 2"><g id="Capa_1-2" data-name="Capa 1"><path class="cls-1" d="M84,29.08a1.42,1.42,0,0,1-1.43,1.4,1.45,1.45,0,0,1-1.23-.69c0-.11-.09-.22-.14-.33A30,30,0,0,0,65.45,14.13c-.55-.22-1.1-.44-1.66-.63l-.07,0a.65.65,0,0,0-.2,0,.69.69,0,0,0-.39,1.26l.08,0a40.3,40.3,0,0,1,4.36,3.08h0a39,39,0,0,1,14.49,30.4,39.64,39.64,0,0,1-.22,4.25A39.14,39.14,0,0,1,32,85.78h-.07l-.1,0h0a1.28,1.28,0,0,1,.4-2.49h0l.34,0h0a29,29,0,0,0,3.11.16,29.7,29.7,0,0,0,16.88-5.22.68.68,0,0,0,.3-.57.69.69,0,0,0-.69-.69.85.85,0,0,0-.22,0h0l-.07,0a37.81,37.81,0,0,1-15.09,3.1A37.36,37.36,0,0,1,10.27,69.31c-.27-.26-.52-.52-.78-.79A34.4,34.4,0,0,1,0,44.85c0-1,0-1.92.12-2.86v0a.06.06,0,0,1,0,0v0a1.56,1.56,0,0,1,3.06-.12.36.36,0,0,1,0,.1c.2,1.06.45,2.1.74,3.12a32.19,32.19,0,0,0,2,5.19A32.93,32.93,0,0,0,57.59,60.32a22.9,22.9,0,0,0,7.5-11.19c0-.11.07-.23.1-.35a22.92,22.92,0,0,0-35.2-25h0l-.08.05,0,0c-.2.13-.4.27-.59.42A14.7,14.7,0,0,0,28,25.38a14.93,14.93,0,0,0-2,2.31h0a14.42,14.42,0,0,0-2.7,8.38A14,14,0,0,0,24,40.76h0A15.56,15.56,0,0,0,38.85,51,16.23,16.23,0,0,0,44,50.15h0l.05,0a.46.46,0,0,0,.28-.42.47.47,0,0,0-.47-.47h-.48a10.73,10.73,0,0,1-11-10.45,10.73,10.73,0,0,1,11-10.46,11.12,11.12,0,0,1,3,.41,11,11,0,0,1,5.51,3.47,19,19,0,0,1,1.16,1.66,0,0,0,0,0,0,0,17.76,17.76,0,0,1,1.37,2.72,17.57,17.57,0,0,1,1.31,6.69c0,10.23-8.67,18.52-19.36,18.52a20.2,20.2,0,0,1-5.2-.67h0L30.72,61h0l-.17-.06L30,60.78l-.25-.09c-.37-.12-.73-.26-1.09-.39A30.9,30.9,0,0,1,8.75,31.37c0-.78,0-1.56.08-2.33h0a31.11,31.11,0,0,1,2.22-9.42h0A31,31,0,0,1,22.68,5.51h0a30.56,30.56,0,0,1,8.56-3.92l.37-.11.9-.23.21-.05A43.76,43.76,0,0,1,83.86,28.48l.09.27A.91.91,0,0,1,84,29.08Z"/></g></g></svg>